<?xml version="1.0" encoding="utf-8"?>
<!-- Generator: Adobe Illustrator 24.3.0, SVG Export Plug-In . SVG Version: 6.00 Build 0)  -->
<svg version="1.1" id="Capa_1" xmlns="http://www.w3.org/2000/svg" xmlns:xlink="http://www.w3.org/1999/xlink" x="0px" y="0px"
	 viewBox="0 0 511 511" style="enable-background:new 0 0 511 511;" xml:space="preserve">
<g>
	<path d="M487.5,128.1H479v-24.5c0-2.9-1.7-5.5-4.3-6.8c-69.6-32.8-149.3-33.2-219.2-1.4c-69.9-31.8-149.6-31.3-219.2,1.4
		c-2.6,1.2-4.3,3.9-4.3,6.8v24.5h-8.5c-13,0-23.5,10.5-23.5,23.5v264c0,13,10.5,23.5,23.5,23.5h464c13,0,23.5-10.5,23.5-23.5v-264
		C511,138.6,500.5,128.1,487.5,128.1z M263,239.6C263,239.6,263,239.6,263,239.6V108.4c64.1-28.7,136.9-28.7,201,0v27.2c0,0,0,0,0,0
		s0,0,0,0v244.4c-32.2-13.5-66.4-20.2-100.5-20.2s-68.3,6.7-100.5,20.2V239.6z M215,96.4c11.2,3.2,22.2,7.2,33,12v117.2l-12.3-8.2
		c-2.5-1.7-5.8-1.7-8.3,0l-12.3,8.2V96.4z M47,135.6C47,135.6,47,135.6,47,135.6C47,135.6,47,135.6,47,135.6v-27.2
		c48.6-21.7,102-27,153-15.8v32.9c-26.8-5.5-54.1-6.8-81.3-3.8c-4.1,0.5-7.1,4.2-6.6,8.3c0.5,4.1,4.2,7.1,8.3,6.6
		c26.7-3,53.5-1.6,79.7,4.2v48.7c-15.9-3.3-32.1-5.1-48.4-5.3c-4.1-0.1-7.6,3.2-7.6,7.4c-0.1,4.1,3.2,7.6,7.4,7.6
		c16.3,0.3,32.7,2.2,48.6,5.6v16.7c-43.4-8.9-88.4-6.6-130.7,6.7c-4,1.2-6.1,5.5-4.9,9.4c1,3.2,4,5.3,7.2,5.3c0.7,0,1.5-0.1,2.2-0.3
		c40.9-12.9,84.4-14.8,126.3-5.6v2.8c0,2.8,1.5,5.3,4,6.6c2.4,1.3,5.4,1.2,7.7-0.4l19.8-13.2l16.5,11v136.5
		c-32.2-13.5-66.4-20.2-100.5-20.2S79.2,366.6,47,380.1L47,135.6L47,135.6z M224,424.1H23.5c-4.7,0-8.5-3.8-8.5-8.5v-264
		c0-4.7,3.8-8.5,8.5-8.5H32v248.5v8c0,4.1,3.4,7.5,7.5,7.5H224V424.1z M57.3,392.1c58.1-22.9,122.3-22.9,180.4,0H57.3z M272,424.1
		h-33v-17h33V424.1z M453.7,392.1H273.3C331.4,369.2,395.6,369.2,453.7,392.1z M496,415.6c0,4.7-3.8,8.5-8.5,8.5H287v-17h184.5
		c4.1,0,7.5-3.4,7.5-7.5v-8V143.1h8.5c4.7,0,8.5,3.8,8.5,8.5V415.6z"/>
	<path d="M310,317.7c-8.3,1.7-16.6,3.9-24.7,6.5c-4,1.2-6.1,5.5-4.9,9.4c1,3.2,4,5.3,7.2,5.3c0.7,0,1.5-0.1,2.2-0.3
		c7.6-2.4,15.5-4.4,23.3-6.1c4.1-0.9,6.7-4.8,5.8-8.9C318,319.5,314,316.9,310,317.7z"/>
	<path d="M439.5,338.9c3.2,0,6.1-2.1,7.2-5.3c1.2-4-1-8.2-4.9-9.4c-32.1-10.1-65.3-13.8-98.8-11.2c-4.1,0.3-7.2,3.9-6.9,8.1
		s3.9,7.2,8.1,6.9c31.6-2.5,62.9,1,93.2,10.5C438,338.7,438.8,338.9,439.5,338.9z"/>
	<path d="M287.5,306.8c0.7,0,1.5-0.1,2.2-0.3c48.2-15.2,99.3-15.2,147.5,0c4,1.2,8.2-1,9.4-4.9c1.2-4-1-8.2-4.9-9.4
		c-51.2-16.1-105.3-16.1-156.5,0c-4,1.2-6.1,5.5-4.9,9.4C281.4,304.7,284.3,306.8,287.5,306.8z"/>
	<path d="M287.5,274.9c0.7,0,1.5-0.1,2.2-0.3c27.7-8.7,56.4-12.4,85.4-11c4.1,0.2,7.7-3,7.8-7.1c0.2-4.1-3-7.6-7.1-7.8
		c-30.8-1.5-61.2,2.5-90.6,11.7c-4,1.2-6.1,5.5-4.9,9.4C281.4,272.8,284.3,274.9,287.5,274.9z"/>
	<path d="M441.7,260.2c-10.8-3.4-21.8-6.1-33-8c-4.1-0.7-8,2-8.7,6.1c-0.7,4.1,2,8,6.1,8.7c10.5,1.8,20.9,4.4,31.1,7.6
		c0.7,0.2,1.5,0.3,2.2,0.3c3.2,0,6.1-2.1,7.2-5.3C447.9,265.7,445.7,261.4,441.7,260.2z"/>
	<path d="M287.5,242.8c0.7,0,1.5-0.1,2.2-0.3c48.2-15.2,99.3-15.2,147.5,0c4,1.2,8.2-1,9.4-4.9c1.2-4-1-8.2-4.9-9.4
		c-51.2-16.1-105.3-16.1-156.5,0c-4,1.2-6.1,5.5-4.9,9.4C281.4,240.7,284.3,242.8,287.5,242.8z"/>
	<path d="M334.7,185.7c-16.7,1.9-33.4,5.4-49.4,10.4c-4,1.2-6.1,5.5-4.9,9.4c1,3.2,4,5.3,7.2,5.3c0.7,0,1.5-0.1,2.2-0.3
		c15.1-4.8,30.8-8.1,46.6-9.8c4.1-0.5,7.1-4.2,6.6-8.3S338.8,185.2,334.7,185.7z"/>
	<path d="M367.4,199.1c23.7,0.4,47.2,4.2,69.9,11.3c0.7,0.2,1.5,0.3,2.2,0.3c3.2,0,6.1-2.1,7.2-5.3c1.2-4-1-8.2-4.9-9.4
		c-24-7.5-49-11.6-74.1-12c-4.1-0.1-7.6,3.2-7.6,7.4S363.2,199.1,367.4,199.1z"/>
	<path d="M390.7,168.7c4.1,0.5,7.8-2.5,8.3-6.6c0.5-4.1-2.5-7.8-6.6-8.3c-36.3-4-72.3-0.5-107.1,10.4c-4,1.2-6.1,5.5-4.9,9.4
		c1,3.2,4,5.3,7.2,5.3c0.7,0,1.5-0.1,2.2-0.3C322.5,168.2,356.5,164.9,390.7,168.7z"/>
	<path d="M441.7,164.2c-5.4-1.7-11-3.2-16.5-4.6c-4-1-8.1,1.5-9.1,5.5c-1,4,1.5,8.1,5.5,9.1c5.2,1.3,10.4,2.7,15.5,4.3
		c0.7,0.2,1.5,0.3,2.2,0.3c3.2,0,6.1-2.1,7.2-5.3C447.9,169.7,445.7,165.4,441.7,164.2z"/>
	<path d="M287.5,146.8c0.7,0,1.5-0.1,2.2-0.3c5.1-1.6,10.3-3.1,15.5-4.3c4-1,6.5-5,5.5-9.1s-5-6.5-9.1-5.5
		c-5.5,1.3-11.1,2.9-16.5,4.6c-4,1.2-6.1,5.5-4.9,9.4C281.4,144.7,284.3,146.8,287.5,146.8z"/>
	<path d="M336.3,136.6c34.2-3.8,68.1-0.5,100.9,9.8c0.7,0.2,1.5,0.3,2.2,0.3c3.2,0,6.1-2.1,7.2-5.3c1.2-4-1-8.2-4.9-9.4
		c-34.8-10.9-70.8-14.4-107.1-10.4c-4.1,0.5-7.1,4.2-6.6,8.3C328.5,134.1,332.2,137.1,336.3,136.6z"/>
	<path d="M94,317.7c-8.3,1.7-16.6,3.9-24.7,6.5c-4,1.2-6.1,5.5-4.9,9.4c1,3.2,4,5.3,7.2,5.3c0.7,0,1.5-0.1,2.2-0.3
		c7.6-2.4,15.5-4.4,23.3-6.1c4.1-0.9,6.7-4.8,5.8-8.9S98,316.9,94,317.7z"/>
	<path d="M223.5,338.9c3.2,0,6.1-2.1,7.2-5.3c1.2-4-1-8.2-4.9-9.4c-32.1-10.1-65.3-13.8-98.8-11.2c-4.1,0.3-7.2,3.9-6.9,8.1
		s3.9,7.2,8.1,6.9c31.6-2.5,62.9,1,93.2,10.5C222,338.7,222.8,338.9,223.5,338.9z"/>
	<path d="M71.5,306.8c0.7,0,1.5-0.1,2.2-0.3c48.2-15.2,99.3-15.2,147.5,0c4,1.2,8.2-1,9.4-4.9c1.2-4-1-8.2-4.9-9.4
		c-51.2-16.1-105.3-16.1-156.5,0c-4,1.2-6.1,5.5-4.9,9.4C65.4,304.7,68.3,306.8,71.5,306.8z"/>
	<path d="M71.5,274.9c0.7,0,1.5-0.1,2.2-0.3c27.7-8.7,56.4-12.4,85.4-11c4.2,0.2,7.6-3,7.8-7.1c0.2-4.1-3-7.6-7.1-7.8
		c-30.8-1.5-61.2,2.5-90.6,11.7c-4,1.2-6.1,5.5-4.9,9.4C65.4,272.8,68.3,274.9,71.5,274.9z"/>
	<path d="M190.2,266.9c10.5,1.8,20.9,4.4,31.1,7.6c0.7,0.2,1.5,0.3,2.2,0.3c3.2,0,6.1-2.1,7.2-5.3c1.2-4-1-8.2-4.9-9.4
		c-10.8-3.4-21.8-6.1-33-8c-4.1-0.7-8,2-8.7,6.1C183.4,262.3,186.1,266.2,190.2,266.9z"/>
	<path d="M118.7,185.7c-16.7,1.9-33.4,5.4-49.4,10.4c-4,1.2-6.1,5.5-4.9,9.4c1,3.2,4,5.3,7.2,5.3c0.7,0,1.5-0.1,2.2-0.3
		c15.1-4.8,30.8-8.1,46.6-9.8c4.1-0.5,7.1-4.2,6.6-8.3C126.5,188.2,122.8,185.2,118.7,185.7z"/>
	<path d="M64.3,173.6c1,3.2,4,5.3,7.2,5.3c0.7,0,1.5-0.1,2.2-0.3c32.8-10.3,66.8-13.6,100.9-9.8c4.1,0.5,7.8-2.5,8.3-6.6
		c0.5-4.1-2.5-7.8-6.6-8.3c-36.3-4-72.3-0.5-107.1,10.4C65.3,165.4,63.1,169.7,64.3,173.6z"/>
	<path d="M71.5,146.8c0.7,0,1.5-0.1,2.2-0.3c5.1-1.6,10.3-3.1,15.5-4.3c4-1,6.5-5,5.5-9.1s-5-6.5-9.1-5.5
		c-5.5,1.3-11.1,2.9-16.5,4.6c-4,1.2-6.1,5.5-4.9,9.4C65.4,144.7,68.3,146.8,71.5,146.8z"/>
</g>
</svg>
